<?xml version="1.0" standalone="no"?>
<!DOCTYPE svg PUBLIC "-//W3C//DTD SVG 20010904//EN"
 "http://www.w3.org/TR/2001/REC-SVG-20010904/DTD/svg10.dtd">
<svg version="1.0" xmlns="http://www.w3.org/2000/svg"
 width="2400.000000pt" height="2400.000000pt" viewBox="0 0 2400.000000 2400.000000"
 preserveAspectRatio="xMidYMid meet">

<g transform="translate(0.000000,2400.000000) scale(0.100000,-0.100000)"
fill="#000000" stroke="none">
<path d="M17385 20943 c-130 -6 -409 -33 -550 -54 -1076 -158 -2082 -611
-2935 -1323 -144 -120 -511 -477 -648 -631 l-72 -80 -77 85 c-42 47 -171 180
-287 295 -313 312 -522 483 -876 720 -410 273 -799 471 -1265 645 -142 52
-454 150 -480 150 -8 0 -1815 -1350 -4015 -3000 l-4000 -3000 0 -6000 0 -6000
3500 0 3500 0 0 3000 0 3000 1000 0 1000 0 0 -3000 0 -3000 1084 0 1084 0 693
622 c1633 1464 2575 2333 3769 3477 395 379 1579 1567 1845 1851 960 1026
1641 1859 2170 2650 595 890 943 1634 1150 2458 298 1190 270 2441 -80 3496
-208 629 -518 1182 -956 1707 -142 170 -463 495 -639 647 -917 790 -1975 1207
-3255 1282 -156 9 -490 11 -660 3z m585 -2003 c907 -68 1624 -396 2242 -1026
266 -273 449 -529 613 -859 223 -453 335 -925 352 -1490 25 -859 -211 -1738
-694 -2588 -905 -1595 -2930 -3736 -7000 -7405 l-303 -273 0 2726 0 2725
-3000 0 -3000 0 0 -3000 0 -3000 -1500 0 -1500 0 0 4500 0 4500 2997 2247
2998 2248 381 -5 381 -5 119 -90 c530 -401 907 -880 1130 -1435 l43 -105 951
0 951 0 43 105 c251 621 703 1158 1316 1565 197 131 296 188 495 285 610 298
1303 431 1985 380z"/>
</g>
</svg>
